# xmcd CD database file
# Copyright (C) 1993-1998 Ti Kan
#
# Track frame offsets:
#	183
#	22545
#	44640
#	65813
#	83943
#	101380
#	129323
#	146053
#	165258
#	178448
#
# Disc length: 2631 seconds
#
# Revision: 1
# Processed by: cddbd v1.4b41PL1 Copyright (c) Steve Scherf et al.
# Submitted via: NotifyCDPlayer(CDDB) 1.51.3
#
DISCID=830a450a
DTITLE=Bruce Stacey - Beyond Reason
DYEAR=1900
DGENRE=
TTITLE0=Beyond Reason
TTITLE1=Nobody's Fool
TTITLE2=More Than Just Enough
TTITLE3=Always Forever
TTITLE4=O The Mystery
TTITLE5=Different Eyes
TTITLE6=All Of Heaven's Got The Blues
TTITLE7=Carry Me Home
TTITLE8=Things That Last
TTITLE9=Close To The Heart
EXTD=
EXTT0=
EXTT1=
EXTT2=
EXTT3=Elaine Stacey, vocal
EXTT4=
EXTT5=
EXTT6=
EXTT7=Elaine Stacey, vocal
EXTT8=
EXTT9=
PLAYORDER=
